<svg width="43" height="23" viewBox="0 0 43 23" fill="none" xmlns="http://www.w3.org/2000/svg">
<g clip-path="url(#clip0_6_12)">
<path d="M21.3806 11.0528C24.6056 11.0528 27.1139 9.64723 27.1139 7.92223C27.1139 6.19723 24.4862 4.85556 21.2612 4.85556C18.0362 4.85556 15.5278 6.26112 15.5278 7.92223C15.5278 9.64723 18.1556 11.0528 21.3806 11.0528ZM21.2612 6.13334C21.3806 6.13334 21.3806 6.13334 21.2612 6.13334C23.1723 6.13334 24.7251 6.96389 24.7251 7.98612C24.7251 9.00834 23.1723 9.775 21.2612 9.775C19.3501 9.775 17.9167 8.94445 17.9167 7.98612C17.9167 6.96389 19.4695 6.13334 21.2612 6.13334Z" fill="#8B8B8B"/>
<path d="M39.0583 10.6694C36.7888 9.58333 33.8027 9.00833 30.6972 9.07222H29.7416C29.5027 9.58333 29.1444 10.0306 28.6666 10.4139C29.3833 10.35 29.9805 10.35 30.6972 10.35C32.9666 10.2861 35.2361 10.6694 37.0277 11.3722V15.9722H39.4166V10.8611L39.0583 10.6694Z" fill="#8B8B8B"/>
<path d="M27.9501 4.98333C28.5473 4.21667 30.2195 3.83333 31.7723 4.15278C33.2056 4.47222 33.9223 5.36667 33.3251 6.19722C32.8473 6.77222 31.7723 7.15556 30.6973 7.15556C30.4584 7.15556 30.1001 7.15556 29.8612 7.09167C29.9806 7.41111 29.9806 7.73056 29.9806 7.98611V8.36945C30.2195 8.36945 30.4584 8.43333 30.6973 8.43333C33.6834 8.43333 36.0723 7.15556 36.0723 5.62222C36.0723 4.025 33.6834 2.74722 30.8167 2.74722C28.9056 2.74722 27.2334 3.25833 26.2778 4.15278C26.8751 4.34444 27.4723 4.6 27.9501 4.98333Z" fill="#8B8B8B"/>
<path d="M14.3334 10.4778C13.8556 10.0945 13.4973 9.64723 13.2584 9.13612H12.3028C9.19726 9.07223 6.21115 9.64723 3.94171 10.6695L3.58337 10.8611V15.9722H5.97226V11.3722C7.88337 10.6695 10.0334 10.2861 12.3028 10.35C13.0195 10.35 13.7362 10.4139 14.3334 10.4778Z" fill="#8B8B8B"/>
<path d="M12.3028 8.36944C12.5417 8.36944 12.7806 8.36944 13.0195 8.30555V7.92222C13.0195 7.60277 13.0195 7.28333 13.1389 7.02777C12.9 7.09166 12.5417 7.09166 12.3028 7.09166C10.75 7.09166 9.43615 6.38888 9.43615 5.55833C9.43615 4.72777 10.75 4.02499 12.3028 4.02499C13.4973 4.02499 14.5723 4.40833 15.05 4.98333C15.5278 4.66388 16.2445 4.34444 16.8417 4.08888C15.2889 2.74722 12.0639 2.29999 9.55559 3.13055C7.04726 3.9611 6.21115 5.6861 7.76392 7.02777C8.71948 7.85833 10.3917 8.36944 12.3028 8.36944Z" fill="#8B8B8B"/>
<path d="M31.175 14.5028L30.9361 14.3111C28.5472 12.9056 25.2028 12.075 21.6195 12.1389C18.0361 12.075 14.5722 12.9056 12.1833 14.3111L11.9445 14.5028V19.3583C11.9445 19.9333 12.7806 20.4444 13.975 20.4444H29.2639C30.3389 20.4444 31.2945 19.9333 31.2945 19.3583V14.5028H31.175ZM28.7861 19.1667H14.3333V14.95C16.2445 13.9278 18.8722 13.4167 21.6195 13.4167C24.2472 13.3528 26.875 13.9278 28.7861 14.95V19.1667Z" fill="#8B8B8B"/>
</g>
<defs>
<clipPath id="clip0_6_12">
<rect width="43" height="23" fill="white"/>
</clipPath>
</defs>
</svg>
