<svg xmlns="http://www.w3.org/2000/svg" viewBox="0 0 161.61 165.42"><path d="M87.45 132c0 10.31-.06 20.63 0 30.94 0 2-.61 2.6-2.55 2.49-2.82-.15-5.66-.13-8.48 0-1.77.08-2.29-.55-2.27-2.28.08-7.15 0-14.3 0-21.46 0-13.39 0-26.78-.07-40.17 0-2.34.71-3 3-2.9a66.39 66.39 0 0 0 8 0c1.88-.1 2.41.58 2.39 2.43-.07 10.31 0 20.62 0 30.94z" fill="#2a78b4"/><path d="M106.08 49.82h28.74c1.79 0 2.56.39 2.46 2.35-.16 2.91-.11 5.83 0 8.74.05 1.54-.3 2.23-2 2.23q-29.48-.09-59 0c-1.65 0-2.21-.58-2.16-2.19.09-2.91.13-5.83 0-8.74-.09-2 .75-2.38 2.51-2.37 9.79.01 19.62-.02 29.45-.02z" fill="#ea5e37"/><path d="M48.79 117.73c0-5.66.05-11.31 0-17 0-1.61.42-2.25 2.09-2.2 3.41.11 6.82.11 10.23 0 1.53 0 2 .51 2 2Q63 118 63.05 135.3c0 1.53-.5 2-2 2-3.32-.09-6.65-.08-10 0-1.77.05-2.3-.67-2.28-2.37.08-5.74 0-11.47 0-17.21z" fill="#2a78b4"/><path d="M112.88 93.5c0 5.66-.06 11.32 0 17 0 1.8-.45 2.51-2.39 2.41-3.24-.18-6.49-.13-9.74 0-1.58.05-2.22-.41-2.21-2.08q.08-17.35 0-34.71c0-1.4.46-1.92 1.87-1.9 3.42.06 6.83.09 10.24 0 1.84-.06 2.24.74 2.22 2.39-.06 5.66 0 11.32 0 17z" fill="#3db04e"/><path d="M68.09 88.42H50.85c-1.49 0-2.06-.41-2-2 .11-3.49.11-7 0-10.48 0-1.47.57-1.82 1.92-1.82q17.35.06 34.72 0c1.52 0 2 .48 2 2-.09 3.41-.11 6.83 0 10.24.08 1.77-.69 2-2.21 2-5.7.02-11.45.06-17.19.06z" fill="#8f2c8c"/><path d="M63.08 44c0 5.58-.06 11.16 0 16.73 0 1.7-.43 2.4-2.22 2.34-3.33-.11-6.66-.08-10 0-1.44 0-2.07-.32-2.06-2q.09-17.23 0-34.47c0-1.77.54-2.31 2.29-2.23 3.16.13 6.33.11 9.49 0 1.78-.06 2.52.39 2.47 2.35-.12 5.74 0 11.49 0 17.24z" fill="#2a78b4"/><path d="M24.46 93.51c0-5.66.05-11.32 0-17 0-1.67.37-2.38 2.2-2.31 3.41.13 6.83.08 10.24 0 1.29 0 1.76.38 1.75 1.7v35.2c0 1.08-.21 1.69-1.52 1.67-3.66-.08-7.32-.09-11 0-1.64 0-1.67-.86-1.66-2.05 0-5.72-.01-11.47-.01-17.21z" fill="#303e8f"/><path d="M142.25 88.25c-5.58 0-11.16-.08-16.74 0-2 0-2.4-.82-2.36-2.53.08-3.08.09-6.17 0-9.24 0-1.6.46-2.22 2.12-2.22h34.47c1.2 0 1.91.31 1.88 1.66q-.11 5.12-.11 10.22c0 1.6-.65 2.13-2.27 2.11-5.66-.09-11.32 0-17 0z" fill="#ea5e37"/><path d="M87.41 19.44v17c0 1.75-.55 2.34-2.29 2.27-2.9-.11-5.82-.09-8.73 0-1.55 0-2.22-.38-2.21-2.09.06-11.56 0-23.12 0-34.68 0-1.41.54-1.92 1.91-1.9 3.07.05 6.15.09 9.23 0 1.67 0 2.12.64 2.1 2.22-.08 5.74 0 11.48 0 17.22z" fill="#2a78b4"/><path d="M14.15 82c-.14 1.67.95 4.53-.4 6s-4.26.38-6.48.48c-1.83.08-3.66 0-5.49 0C.49 88.49 0 88 0 86.72Q.08 81.35 0 76c0-1.22.29-1.84 1.67-1.81q5.37.09 10.74 0c1.29 0 1.79.44 1.74 1.74-.05 1.81 0 3.64 0 6.07z" fill="#8f2c8c"/><path d="M137.27 106.18c-.27 1.86 1 4.77-.57 6.27s-4.29.34-6.51.42c-1.82.07-3.66-.05-5.48 0-1.34.07-1.73-.5-1.72-1.75v-10.71c0-1.38.47-1.93 1.88-1.91 3.57.07 7.14.06 10.71 0 1.28 0 1.8.45 1.76 1.75-.11 1.86-.07 3.69-.07 5.93z" fill="#3db04e"/><path d="M105.27 38.57c-1.85-.19-4.74 1-6.13-.42s-.35-4.27-.44-6.49c-.07-1.75.1-3.51 0-5.24s.53-2 2-1.92c3.41.08 6.83.1 10.24 0 1.63-.06 2 .63 2 2.05-.08 3.41-.13 6.83 0 10.24 0 1.47-.53 1.89-1.89 1.82-1.91-.1-3.66-.04-5.78-.04z" fill="#303e8f"/><path d="M98.53 130.12v-2.25c0-4.93 0-4.93 5-4.93 2.41 0 4.82.06 7.23 0 1.43-.05 2.12.31 2.08 1.92-.09 3.49-.08 7 0 10.47 0 1.58-.66 2-2.1 2-3.48-.07-7-.09-10.46 0-1.46 0-1.88-.56-1.82-1.92.13-1.8.07-3.55.07-5.29z" fill="#ea5e37"/><path d="M31.82 50c2.15 0 5-.84 6.28.21 1.53 1.27.48 4.22.51 6.44.07 6.41 0 6.41-6.48 6.41H25.9c-1.06 0-1.49-.39-1.48-1.47V51.36c0-1.22.51-1.59 1.65-1.56 1.92.06 3.83 0 5.74 0z" fill="#8f2c8c"/></svg>